<?xml version="1.0" encoding="UTF-8" standalone="no"?>
<!-- Created with Inkscape (http://www.inkscape.org/) -->

<svg
   xmlns:svg="http://www.w3.org/2000/svg"
   xmlns="http://www.w3.org/2000/svg"
   version="1.1"
   width="210mm"
   height="297mm"
   viewBox="0 0 210 297"
   id="svg8">
  <defs
     id="defs2" />
  <g
     id="layer1">
    <path
       d="m 23.175334,102.22906 c 0,0 -10.289878,13.49711 -11.492588,15.23437 -1.202721,1.73725 -3.7417802,5.07812 -4.8108602,9.2208 -1.069071,4.14267 -5.612661,10.95805 -5.746291,12.16076 -0.13362898,1.20271 -6.0135697,20.57975 -6.6817397,22.98518 -0.66817,2.40542 -2.8063298,10.55714 -3.74177,14.96709 -0.9354501,4.40995 -2.1381601,22.04974 -2.5390601,22.98518 -0.40091,0.93545 0.53454,11.89349 0.93544,14.56619 0.40091,2.67269 11.62622982,21.1143 13.4971098,23.92062 1.87089,2.80633 9.8889712,9.6217 10.9580502,10.55715 1.06908,0.93544 21.9161,12.29439 23.78699,13.36347 1.87089,1.06908 7.483552,3.47451 12.561671,4.67723 5.078119,1.20271 9.888971,3.20722 13.0962,1.73725 3.20724,-1.47 5.07813,-1.06908 7.884459,-2.93997 2.806332,-1.8709 4.142671,-1.73725 6.013561,-4.81086 1.870885,-3.07359 1.603619,-3.8754 5.211758,-7.21627 3.608133,-3.34087 4.276312,-4.54358 5.612656,-6.94901 1.336347,-2.40543 2.939967,-4.67722 3.741777,-6.68174 0.80181,-2.00452 4.54358,-4.54357 8.686263,-6.28083 4.14268,-1.73725 8.15172,-2.80633 10.15624,-6.41447 2.00452,-3.60814 4.94449,-5.21176 6.5481,-5.21176 1.60362,0 4.14268,-0.93544 5.87993,-0.66817 1.73725,0.26727 2.13816,0.4009 2.13816,0.4009 0,0 -2.80633,-4.94448 -4.54358,-5.61266 -1.73725,-0.66817 -4.67722,-2.00452 -5.21176,-2.00452 -0.53454,0 -2.27179,0.53454 -2.80633,0.80181 -0.53454,0.26727 0.13364,-3.60814 0.66817,-4.27631 0.53454,-0.66817 3.47451,-2.6727 4.81086,-3.0736 1.33634,-0.4009 5.21175,-0.93544 6.28083,-0.93544 1.06908,0 3.0736,0.53454 3.0736,0.53454 0,0 -0.66817,-3.47451 -2.40542,-4.67722 -1.73726,-1.20271 -5.47903,-2.93996 -5.47903,-2.93996 l -0.13364,-4.81086 c 0,0 4.27632,-7.08264 4.94449,-10.55714 0.66818,-3.4745 2.53906,-5.21176 3.34087,-11.09169 0.80181,-5.87992 1.87089,-12.02713 0.93544,-17.90705 -0.93544,-5.87993 -2.40542,-10.28988 -1.20271,-12.56167 1.20271,-2.27179 2.93996,-4.00905 2.93996,-4.00905 0,0 2.40543,0.80181 5.3454,0.13364 2.93996,-0.66818 4.00904,-3.60814 4.00904,-3.60814 0,0 20.44612,-16.16981 26.45968,-21.64883 6.01357,-5.47903 8.68626,-7.88445 11.35896,-12.02713 2.67269,-4.142679 7.08264,-11.225323 7.61718,-13.229844 0.53454,-2.004523 4.14268,-9.621705 5.47902,-10.958052 1.33635,-1.336347 0.40091,-3.741772 2.6727,-5.612659 2.27179,-1.870885 7.21628,-3.34087 7.21628,-3.34087 0,0 4.00904,-3.073596 5.74629,-5.345388 1.73725,-2.271794 5.34539,-3.87541 5.34539,-3.87541 l 4.27631,-0.668171 2.53906,0.668171 c 0,0 1.33635,-1.870887 0.13364,-3.207234 -1.20271,-1.336347 -1.20271,-1.737254 -2.27179,-2.138156 -1.06908,-0.400902 -3.95735,-1.40267 -3.95735,-1.40267 0,0 3.77977,-0.850445 3.96875,-0.850445 0.18899,0 0.42522,0.755949 2.12612,0.14174 1.70089,-0.614212 2.36235,-0.897697 3.07106,-1.700895 0.7087,-0.803196 1.46465,-1.181177 1.46465,-1.181177 0,0 1.79539,1.181177 2.5041,1.795391 0.7087,0.614209 1.41741,0 1.41741,-0.944941 0,-0.944943 0.18898,-2.834825 -0.66146,-4.157739 -0.85045,-1.322919 -1.6064,-2.645836 -3.26005,-2.976565 -1.65364,-0.330729 -3.40178,-1.275665 -4.77194,-2.220609 -1.37017,-0.94494 -2.03163,-1.559149 -2.83483,-2.07887 -0.80319,-0.519716 -1.6064,-1.88988 -3.49627,-1.795386 -1.88989,0.09449 -4.016,1.842635 -4.63021,2.362351 -0.61421,0.519721 -3.77977,3.118305 -4.06325,3.401785 -0.28348,0.283485 -2.78757,2.55134 -3.26004,3.260045 -0.47247,0.708705 -0.33073,0.330729 -1.18118,-0.14174 -0.85045,-0.472472 -1.93713,-1.27567 -3.44903,-1.41741 -1.51191,-0.14174 -2.74033,0.377978 -3.77976,1.086683 -1.03944,0.708705 -2.5041,1.559153 -2.74033,2.173362 -0.23624,0.614209 0.14174,2.882069 -0.0472,3.590774 -0.18899,0.708705 -0.66146,1.937128 -1.13393,2.456844 -0.47247,0.519716 -2.55134,1.511906 -2.55134,1.511906 0,0 -12.47321,4.630208 -12.94568,5.10268 -0.47247,0.472469 -10.77233,6.425594 -13.60715,7.559524 -2.83482,1.133925 -14.93006,6.047618 -17.4814,6.898063 -2.55133,0.850445 -8.97693,2.929316 -11.15029,3.590772 -2.17337,0.661458 0.18898,-0.850445 1.41741,-3.1183 1.22842,-2.26786 2.74033,-4.8192 3.30729,-7.370535 0.56696,-2.55134 1.22842,-5.953125 1.32292,-8.504465 0.0945,-2.55134 -0.0945,-8.220985 1.13392,-8.976934 1.22843,-0.755954 2.92932,-2.26786 3.2128,-3.96875 0.28349,-1.700895 0.28349,-3.118305 0.28349,-3.118305 l 5.00818,0.472472 c 0,0 -2.17336,-1.984375 -0.47247,-1.889882 1.70089,0.09449 2.83482,0.755949 3.02381,0.09449 0.18899,-0.661458 0.28348,-1.984375 0.28348,-1.984375 l -4.7675,-8.68407 4.00905,-3.34087 -2.80633,-1.336346 -2.00453,-2.672695 c 0,0 2.40543,-2.27179 3.20724,-4.009045 0.80181,-1.737251 2.67269,-4.142675 1.87089,-3.875406 -0.80181,0.267267 -2.13816,0.534539 -2.13816,0.534539 0,0 1.33635,-3.073601 0.4009,-3.207233 -0.93544,-0.133636 -2.40542,0.267268 -3.0736,-1.202715 -0.66817,-1.469982 -0.13363,-2.5390607 -0.66817,-4.6772142 -0.53454,-2.1381501 -2.40542,-3.3408703 -3.87541,-4.6772201 -1.46998,-1.33634 -3.20723,-2.53906007 -4.40995,-2.53906007 -1.20271,0 -8.01808,0.66818 -8.68626,0.66818 -0.66817,0 -1.73725,-2.40543003 -2.53906,-2.00451993 -0.8018,0.4008999 -1.87088,2.13815003 -1.87088,2.13815003 0,0 0,-0.8018101 -0.66818,-0.8018101 -0.66817,0 -1.46998,-0.66816996 -4.54358,1.73726017 -3.0736,2.4054199 -6.41447,3.74177 -8.28536,3.87541 -1.87088,0.1336299 -18.040693,3.3408595 -19.243403,3.7417635 -1.202712,0.400905 -2.539059,1.7372527 -5.211753,1.7372527 -2.672699,0 -18.307957,-1.7372527 -18.307957,-1.7372527 L 51.505896,6.6802086 c 0,0 -1.06907,2.4054197 -5.87993,4.0090364 -4.81085,1.603619 -7.61718,2.672697 -8.819891,4.543581 -1.202708,1.870888 -0.801809,3.073602 -4.27631,3.741775 -3.4745,0.668173 -4.677219,-0.668173 -3.608138,0.668173 1.069078,1.336348 1.737249,2.80633 0.801809,3.073599 -0.93545,0.267272 -8.285361,0.668176 -8.285361,0.668176 0,0 1.603621,2.271791 2.80633,3.741771 1.202721,1.469983 1.202721,3.474503 1.202721,3.474503 h -2.93997 l 3.741769,2.539061 c 0,0 -5.078119,-1.069078 -3.073591,0.133635 2.004521,1.202717 3.608131,2.672697 3.608131,3.741775 0,1.069078 0.267272,4.677214 0,5.746295 -0.267258,1.069078 -4.677209,3.608136 -4.677209,3.608136 l 7.349911,0.935445 c 0,0 -4.276312,1.469983 -3.073601,1.469983 1.202708,0 2.80633,0.133633 7.21628,1.069078 4.40994,0.935442 4.81085,1.469982 6.949001,1.202711 2.138159,-0.267269 6.548109,-1.46998 4.810858,-0.267269 -1.73726,1.202714 -5.612659,4.276312 -5.612659,4.276312 h 7.082639 l 4.543581,1.603619 c 0,0 0.400899,2.405427 0.267269,3.207234 -0.133639,0.801809 -3.474498,4.409948 -4.409948,6.681737 -0.93544,2.271792 -12.695301,22.317006 -14.699822,24.588798 -2.00452,2.271789 -9.354431,11.091687 -9.354431,11.091687 z"
       id="path1127"
       style="fill:#000000;stroke:#000000;stroke-width:0.26458299px;stroke-linecap:butt;stroke-linejoin:miter;stroke-opacity:1" />
  </g>
</svg>
