<?xml version="1.0" encoding="UTF-8" standalone="no"?>
<!-- Created with Inkscape (http://www.inkscape.org/) -->

<svg
   xmlns:svg="http://www.w3.org/2000/svg"
   xmlns="http://www.w3.org/2000/svg"
   version="1.0"
   width="100%"
   height="100%"
   viewBox="0 0 159.737 292.579"
   id="Layer_1"
   xml:space="preserve"><defs
   id="defs7" />
<path
   d="m 114.105,188.28 c -2.691,-1.153 -5.767,-2.691 -8.459,-3.845 -0.769,-0.384 -1.538,-0.769 -2.691,-1.153 -0.384,0 -1.538,-0.769 -1.538,-1.153 0,-0.769 0,-1.538 0,-2.307 -0.384,-1.922 -0.769,-2.307 -2.307,-3.46 -1.153,-0.769 -0.384,-2.691 -2.307,-2.691 -1.153,0 -2.691,0.384 -3.46,0 -1.538,-0.769 -2.691,-1.153 -4.229,-1.922 -2.307,-1.153 -4.229,-4.229 -6.152,-6.152 0,0 -1.922,-1.922 -1.922,-2.307 1.153,-1.153 1.922,-2.691 3.076,-3.845 3.845,-4.614 6.536,-10.381 9.612,-15.379 1.153,-1.538 1.922,-3.076 2.691,-4.998 1.153,-2.691 1.538,-6.152 3.076,-8.843 1.538,-2.691 3.076,-4.998 4.229,-7.69 0.769,-2.307 0.384,-5.383 0.384,-7.69 0.384,-6.152 0,-11.919 -0.384,-18.071 0,-2.307 -0.769,-4.614 -1.153,-6.921 -0.384,-2.307 -0.384,-5.767 -1.922,-7.69 -1.538,-2.307 -3.46,-4.614 -4.998,-7.305 -0.769,-0.769 -1.538,-1.922 -1.538,-3.076 0,-1.922 0,-3.845 0.384,-5.767 0,-5.383 1.922,-9.997 3.845,-14.995 0.384,-1.153 0.769,-2.307 1.153,-3.845 0.384,-1.153 0,-3.076 0.769,-3.845 1.538,-2.307 2.691,-4.998 4.229,-6.921 1.538,-1.922 3.845,-3.845 5.383,-6.152 0.769,-1.153 1.153,-2.307 2.307,-3.076 0.769,-0.384 1.153,-0.384 1.153,-1.153 0,-0.384 -1.538,-0.384 -1.922,-0.384 -1.922,0 -4.998,1.922 -6.536,2.691 -2.691,1.538 -4.998,2.691 -7.69,4.614 -0.769,0.769 -1.922,1.538 -3.076,1.922 -1.153,0.384 -2.691,0.769 -3.845,1.538 -2.691,1.538 -4.614,3.076 -6.921,5.383 -0.769,0.769 -1.153,2.307 -1.153,3.46 0,0.769 -2.691,2.307 -3.46,3.076 -1.922,1.538 -3.46,3.845 -4.998,5.767 -1.922,2.691 -2.307,4.998 -2.691,8.074 -0.384,2.691 -0.384,4.998 1.153,7.69 1.538,2.307 3.076,4.614 3.845,6.921 0.384,1.538 1.153,1.922 0,3.46 -0.769,1.153 -1.922,2.691 -2.691,3.46 -2.307,1.538 -5.383,2.691 -7.305,4.229 -1.922,1.538 -3.845,3.845 -5.383,5.767 -3.845,4.614 -6.536,9.612 -8.074,14.995 -1.538,5.383 -2.691,11.15 -3.845,16.917 0,0.384 0,0.384 0,0.769 -1.153,-1.538 -2.691,-3.076 -3.845,-4.229 -1.922,-1.922 -2.691,-3.076 -3.845,-5.383 -1.922,-3.845 -3.46,-7.69 -5.383,-11.535 -1.538,2.307 -3.076,4.614 -4.229,6.921 -1.153,2.691 -1.922,5.767 -2.307,8.459 -0.384,1.538 3.076,4.614 4.229,5.767 2.307,2.307 3.845,4.614 5.767,7.305 1.538,2.307 2.691,4.998 3.46,7.69 0.769,1.922 3.076,4.229 3.076,6.152 -0.769,5.767 -1.153,11.15 -1.153,16.917 0,2.691 0,5.383 -0.384,7.69 0,1.153 -0.384,2.307 0,3.46 0.384,1.153 1.153,2.691 1.153,3.845 0.384,2.307 -0.384,4.998 0.769,7.305 0.384,1.153 1.153,1.922 2.307,1.538 1.538,-0.384 1.922,-1.538 2.307,-2.691 -0.769,11.535 -1.153,22.685 -3.076,34.219 -1.153,5.767 -1.538,11.15 -2.691,16.917 -0.384,1.153 -0.384,2.691 -0.384,3.845 0,1.538 0.384,2.307 1.153,3.845 0.769,1.538 1.153,1.922 2.307,3.076 1.153,1.153 1.922,1.153 3.46,1.153 1.922,0 2.307,0.384 3.845,-0.769 1.153,-0.769 2.307,-1.538 3.46,-2.307 0.384,-0.384 2.307,1.538 2.691,1.922 1.538,0.384 3.076,1.153 4.229,1.538 3.076,1.153 4.998,-0.384 6.536,-2.691 1.538,-1.922 1.153,-5.383 1.153,-8.074 -0.384,-6.152 -1.538,-12.304 -1.922,-18.455 -0.769,-5.383 -1.153,-10.381 -1.153,-15.764 0,-3.46 -0.384,-7.69 0.384,-11.15 0.769,-4.229 1.538,-8.074 2.307,-12.304 3.845,3.076 7.305,5.767 10.766,9.228 1.538,1.538 3.076,2.307 4.998,3.845 1.538,1.153 3.46,3.076 4.998,3.845 8.459,3.46 17.302,6.921 26.145,9.228 l 1.538,-12.688 c 0,-1.153 0.769,-2.691 -0.384,-3.076 -2.692,-1.538 -4.614,-1.922 -6.921,-2.691"
   id="path3" />
</svg>