<?xml version="1.0" encoding="UTF-8" standalone="no"?>
<!-- Created with Inkscape (http://www.inkscape.org/) -->

<svg
   xmlns:svg="http://www.w3.org/2000/svg"
   xmlns="http://www.w3.org/2000/svg"
   version="1.1"
   width="1500"
   height="1500"
   viewBox="0 0 1500 1500"
   id="Layer_1"
   xml:space="preserve"><defs
   id="defs7" />
    
    <path
   d="m 423.358,1400.525 c 11.363,8.87 36.474,57.58 35.142,72.303 -49.49,-0.672 -69.941,-47.219 -98.773,-78.079 -63.395,-67.872 -115.087,-144.557 -157.768,-226.874 -12.597,-24.285 -24.833,-48.766 -37.988,-72.768 -20.087,-36.685 -45.628,-70.555 -61.343,-109.535 -16.633,-41.263 -20.811,-86.991 -24.535,-130.931 -5.094,-60.069 20.752,-74.501 76.72,-94.231 15.43,-5.436 33.815,-8.238 47.146,-18.307 23.862,-18.01 -10.069,-24.633 -25.253,-25.41 -11.293,-0.579 -22.333,-2.69 -32.85,-4.798 -29.678,-5.951 -59.092,-10.066 -86.52,-23.475 0.098,11.275 7.071,20.222 13.79,28.509 C 66.785,711.575 50.63,708.004 44.257,703.517 36.302,697.928 25.383,689.231 21.5,679.966 14.108,662.331 17.696,628.301 27.107,612.094 40.55,588.89 50.942,559.899 81.324,556.228 c 32.933,-3.98 65.032,9.673 97.754,10.305 21.362,0.406 43.052,1.775 64.519,1.775 6.92,0 24.082,3.042 29.56,-0.867 11.754,-8.463 14.625,-34.016 16.657,-46.686 3.003,-18.696 7.871,-35.77 7.281,-55.028 -1.235,-39.812 -12.618,-78.776 -24.989,-116.346 -7.812,-23.767 8.7,-42.646 23.298,-59.266 32.479,-37.019 64.006,-69.869 107.584,-93.926 83.824,-46.297 178.349,-75.195 269.186,-104.345 80.58,-25.871 161.952,-49.949 246.447,-58.693 23.51,-2.344 63.745,-13.246 82.996,2.364 -11.913,13.024 -44.022,28.517 -56.615,34.106 25.658,-6 95.603,-15.881 114.931,4.882 -14.292,17.018 -54.279,20.825 -75.639,26.207 -26.221,6.616 -55.021,8.536 -81.982,12.704 39.459,0.049 136.477,-25.257 161.345,11.557 -22.046,14.886 -66.851,15.947 -93.536,20.503 -16.548,32.178 -46.645,21.998 -72.97,36.478 -2.989,41.297 -63.328,38.971 -87.572,60.94 -26.457,23.956 -43.732,47.638 -80.389,60.812 0.936,1.342 3.2,3.304 4.198,4.93 10.528,17.248 -78.734,19.429 -81.851,22.473 0.419,0.604 1.862,1.769 1.941,2.462 0.361,3.572 12.165,16.457 14.594,19.459 5.985,7.382 12.182,13.218 16.72,21.893 10.361,19.813 -1.667,31.721 0.544,52.036 1.966,18.117 2.276,34.58 6.11,53.776 2.833,14.188 6.747,41.908 -12.312,47.712 9.764,14.244 16.079,52.518 -6.086,59.626 6.683,18.748 8.887,30.874 -5.697,45.908 10.451,5.261 8.333,17.962 11.686,27.673 14.688,42.424 81.984,53.708 118.363,65.504 95.32,30.888 191.25,59.647 287.409,87.774 35.146,10.271 70.194,20.958 105.479,30.757 31.747,8.807 64.021,14.361 95.7,23.037 22.06,6.04 43.979,10.964 65.618,15.548 20.047,4.237 38.849,10.493 59.597,13.676 19.237,2.947 38.406,5.131 57.186,10.95 7.657,2.365 12.94,4.271 17.114,12.108 4.349,8.147 -47.476,13.516 -51.358,12.719 6.609,1.671 15.631,5.513 13.356,13.869 -24.452,1.235 -49.334,-1.4 -72.358,-5.756 5.117,3.439 12.731,5.201 11.54,13.051 -31.513,1.728 -62.248,-7.268 -92.247,-13.161 -26.596,-5.223 -59.461,-8.641 -84.634,-18.405 13.176,6.657 7.885,12.039 -2.927,12.559 -9.444,0.451 -18.128,-1.457 -26.707,-2.767 -18.411,-2.802 -37.439,-3.815 -55.734,-7.49 -19.557,-3.953 -39.89,-6.727 -59.862,-10.714 -26.643,-5.319 -54.202,-10.542 -80.083,-17.892 -14.286,-4.071 -28.737,-7.739 -43.398,-10.168 -8.37,-1.394 -33.343,1.083 -39.402,-3.259 8.826,6.312 28.681,16.096 32.558,26.18 -10.77,10.52 -38.411,5.624 -51.852,3.683 -35.798,-5.167 -72.906,-16.797 -106.36,-30.326 -28.467,-11.52 -58.999,-16.574 -87.743,-27.255 -25.444,-9.466 -51.567,-25.755 -79.758,-18.771 -12.857,3.182 -28.086,2.059 -39.965,8.467 -16.15,8.724 -9.548,22.905 -19.518,34.813 -3.309,3.938 -15.545,3.633 -19.699,6.469 -5.253,3.572 -5.992,10.938 -11.98,15.375 -9.807,7.296 -24.196,14.135 -35.822,18.856 0.34,0.416 3.401,1.102 4.442,2.254 5,5.507 -37.73,26.685 -49.866,17.643 -0.793,-0.999 -0.729,-1.069 0.195,-0.181 4.029,13.759 -6.467,31.04 -20.373,31.186 25.69,11.824 19.324,38.031 30.022,59.092 2.979,5.854 15.658,12.899 15.897,19.474 0.033,0.784 -1.37,19.23 -7.594,12.066 10.438,12.011 28.794,20.083 35.694,34.868 6.48,13.871 -8.499,38.676 -6.469,43.135 10.86,23.884 31.802,38.572 31.325,67.435 -0.208,11.956 -9.637,26.263 -7.944,34.592 1.238,6.116 16.47,19.084 20.03,26.296 12.864,26 2.567,48.406 24.459,69.863 8.984,8.821 53.726,38.814 38.842,51.941 -28.579,-9.265 -51.137,-29.389 -79.397,-39.348 16.146,18.626 82.044,101.428 19.044,80.748 11.099,40.327 -7.948,37.185 -37.057,19.168 -24.122,-14.909 -46.932,-33.23 -69.442,-50.79 z"
   id="path3" />
    
</svg>